<!DOCTYPE svg PUBLIC "-//W3C//DTD SVG 1.1//EN" "http://www.w3.org/Graphics/SVG/1.1/DTD/svg11.dtd">
<!-- Uploaded to: SVG Repo, www.svgrepo.com, Transformed by: SVG Repo Mixer Tools -->
<svg version="1.1" id="Layer_1" xmlns="http://www.w3.org/2000/svg" xmlns:xlink="http://www.w3.org/1999/xlink" viewBox="-50.19 -50.19 602.26 602.26" xml:space="preserve" width="72px" height="72px" fill="#000000" transform="rotate(0)matrix(1, 0, 0, 1, 0, 0)" stroke="#000000" stroke-width="2.5093850000000004">
<g id="SVGRepo_bgCarrier" stroke-width="0" transform="translate(0,0), scale(1)">
<rect x="-50.19" y="-50.19" width="602.26" height="602.26" rx="301.13" fill="#7ed0ec" strokewidth="0"/>
</g>
<g id="SVGRepo_tracerCarrier" stroke-linecap="round" stroke-linejoin="round" stroke="#CCCCCC" stroke-width="1.003754"/>
<g id="SVGRepo_iconCarrier"> <path style="fill:#464646;" d="M445.072,92.005H56.805c-6.4,0-11.733,5.333-11.733,10.667v245.333c0,6.4,5.333,10.667,11.733,10.667 h389.333c6.4,0,11.733-5.333,11.733-10.667V102.672C456.805,97.338,451.472,92.005,445.072,92.005z"/> <rect x="63.205" y="110.138" style="fill:#637888;" width="375.467" height="231.467"/> <path style="fill:#a29e9d;" d="M496.272,501.605H5.605c-4.267,0-6.4-3.2-5.333-7.467l42.667-128c1.067-3.2,4.267-5.333,8.533-5.333 h398.933c3.2,0,7.467,2.133,8.533,5.333l42.667,128C502.672,498.405,500.539,501.605,496.272,501.605z"/> <g> <path style="fill:#637888;" d="M457.872,444.005H44.005c-4.267,0-6.4-3.2-5.333-6.4l17.067-56.533 c1.067-3.2,4.267-5.333,8.533-5.333h373.333c3.2,0,7.467,2.133,8.533,5.333l17.067,56.533 C464.272,440.805,462.138,444.005,457.872,444.005z"/> <path style="fill:#637888;" d="M294.672,492.005h-87.467c-4.267,0-7.467-3.2-7.467-7.467l1.067-23.467 c0-4.267,4.267-7.467,7.467-7.467h83.2c4.267,0,7.467,3.2,7.467,7.467l1.067,23.467 C302.138,487.738,298.939,492.005,294.672,492.005z"/> </g> <ellipse style="fill:#53C2EF;" cx="250.938" cy="141.072" rx="141.867" ry="140.8"/> <g> <path style="fill:#ffffff;" d="M250.938,269.072c-70.4,0-128-57.6-128-128s57.6-128,128-128s128,57.6,128,128 S321.339,269.072,250.938,269.072z M250.938,26.938c-64,0-115.2,51.2-115.2,115.2s51.2,114.133,115.2,114.133 s115.2-51.2,115.2-115.2S314.939,26.938,250.938,26.938z"/> <path style="fill:#ffffff;" d="M250.938,269.072c-43.733,0-76.8-56.533-76.8-128s34.133-128,76.8-128 c43.733,0,76.8,56.533,76.8,128S294.672,269.072,250.938,269.072z M250.938,26.938c-35.2,0-64,51.2-64,115.2s28.8,115.2,64,115.2 s64-51.2,64-115.2S286.138,26.938,250.938,26.938z"/> <rect x="244.538" y="20.538" style="fill:#ffffff;" width="12.8" height="241.067"/> <rect x="147.472" y="72.805" style="fill:#ffffff;" width="208" height="12.8"/> <rect x="129.339" y="134.672" style="fill:#ffffff;" width="242.133" height="12.8"/> <rect x="147.472" y="197.605" style="fill:#ffffff;" width="208" height="12.8"/> </g> </g>
</svg>